<?xml version="1.0" standalone="no"?>
<!DOCTYPE svg PUBLIC "-//W3C//DTD SVG 20010904//EN"
 "http://www.w3.org/TR/2001/REC-SVG-20010904/DTD/svg10.dtd">
<svg version="1.0" xmlns="http://www.w3.org/2000/svg"
 width="300.000000pt" height="300.000000pt" viewBox="0 0 300.000000 300.000000"
 preserveAspectRatio="xMidYMid meet">
<g transform="translate(0.000000,300.000000) scale(0.100000,-0.100000)"
fill="#000000" stroke="none">
<path d="M1621 2522 c-19 -81 -36 -154 -39 -163 -6 -24 159 -64 220 -54 88 15
152 118 127 207 -17 66 -63 101 -161 127 -46 12 -90 24 -98 27 -12 3 -22 -27
-49 -144z m163 77 c22 -6 55 -26 74 -45 33 -33 34 -37 30 -89 -6 -65 -41 -111
-95 -121 -37 -7 -163 15 -163 28 0 7 15 68 51 211 11 43 4 42 103 16z"/>
<path d="M1286 2624 c6 -34 6 -36 -14 -25 -11 6 -28 11 -36 11 -19 0 -21 -19
-3 -24 55 -17 54 -16 25 -41 -17 -15 -24 -26 -17 -31 6 -3 21 4 34 16 25 24
29 21 37 -23 5 -31 23 -18 20 15 -2 25 1 30 15 25 10 -2 24 -6 32 -8 21 -6 25
20 4 27 -10 3 -25 8 -33 11 -11 3 -8 10 14 28 19 15 24 25 16 30 -6 4 -21 -2
-34 -14 -30 -28 -36 -27 -36 9 0 20 -5 30 -15 30 -13 0 -15 -7 -9 -36z"/>
<path d="M1019 2457 c-10 -8 -24 -47 -34 -97 -9 -47 -20 -89 -24 -93 -4 -4
-37 35 -72 87 -58 84 -67 92 -82 81 -16 -12 -9 -26 84 -158 90 -128 105 -145
121 -136 18 10 18 11 -2 39 -16 23 -19 38 -14 65 7 41 9 41 92 15 47 -15 68
-17 83 -10 10 6 19 14 19 18 0 4 -38 18 -85 31 -95 26 -93 22 -71 114 14 59
12 65 -15 44z"/>
<path d="M2000 2407 c-68 -34 -92 -139 -45 -195 46 -55 135 -82 135 -42 0 15
-7 20 -29 20 -43 0 -91 49 -91 92 0 19 3 37 6 40 3 4 42 -20 87 -53 45 -32 85
-59 88 -59 12 0 29 52 29 88 -1 20 -6 47 -14 60 -29 54 -109 78 -166 49z m124
-58 c26 -31 34 -73 16 -84 -6 -3 -38 13 -73 37 -34 23 -64 44 -66 45 -2 1 2 9
9 18 7 9 29 15 50 15 30 0 44 -6 64 -31z"/>
<path d="M2205 2164 c-88 -166 -88 -166 97 -122 126 31 135 34 123 51 -12 17
-18 16 -121 -12 -60 -16 -110 -28 -112 -27 -1 2 23 47 53 100 49 88 54 100 41
117 -13 19 -19 11 -81 -107z"/>
<path d="M752 2228 c-56 -27 -83 -130 -48 -183 22 -34 74 -65 109 -65 36 0 80
23 106 56 22 28 37 86 27 103 -13 20 -34 -1 -40 -39 -13 -82 -93 -105 -153
-45 -30 30 -35 40 -29 67 8 38 40 76 70 80 11 2 22 11 24 21 4 20 -29 22 -66
5z"/>
<path d="M2320 1968 c-41 -28 -60 -61 -60 -106 0 -66 68 -156 91 -121 6 9 3
19 -10 29 -46 40 -56 113 -18 148 l23 21 33 -92 c19 -50 37 -95 40 -99 12 -14
71 31 87 66 22 44 12 97 -25 138 -38 43 -110 50 -161 16z m127 -33 c34 -24 44
-67 25 -106 -9 -18 -22 -34 -28 -36 -6 -2 -24 33 -41 77 l-31 80 27 0 c15 0
36 -7 48 -15z"/>
<path d="M607 1968 c-36 -13 -67 -74 -67 -133 0 -36 3 -45 18 -45 13 0 17 9
17 43 0 57 26 97 64 97 15 0 30 -2 33 -6 3 -3 -3 -27 -13 -55 -23 -60 -24 -88
-3 -117 16 -24 61 -30 94 -12 28 15 55 93 41 119 -10 18 -9 21 8 21 32 0 34
29 3 41 -140 55 -161 60 -195 47z m137 -74 c39 -39 12 -124 -40 -124 -32 0
-39 31 -19 90 17 52 33 61 59 34z"/>
<path d="M498 1678 c-3 -29 -7 -33 -35 -36 -25 -2 -33 -8 -33 -23 0 -15 7 -19
31 -19 28 0 31 -3 27 -25 -4 -19 -1 -25 13 -25 13 0 19 7 19 21 0 20 3 21 94
14 87 -7 95 -6 115 14 29 29 30 101 1 101 -16 0 -19 -5 -15 -22 3 -13 0 -31
-7 -41 -12 -16 -23 -17 -96 -11 l-82 7 0 38 c0 50 -27 55 -32 7z"/>
<path d="M2560 1700 c-30 -5 -99 -14 -152 -20 -84 -11 -98 -15 -98 -31 0 -10
3 -20 8 -22 4 -2 45 1 92 8 47 7 124 18 173 25 74 10 87 15 87 31 0 21 -15 22
-110 9z"/>
<path d="M2383 1565 c-39 -17 -66 -66 -66 -122 0 -74 51 -125 127 -125 79 0
126 51 126 135 0 94 -96 152 -187 112z m96 -36 c38 -14 51 -35 51 -88 0 -76
-87 -108 -149 -55 -36 30 -41 75 -15 112 27 39 63 48 113 31z"/>
<path d="M600 1500 c-21 -21 -26 -37 -35 -123 -4 -31 -13 -64 -22 -73 -44 -44
-98 24 -88 114 5 47 3 52 -14 52 -25 0 -36 -45 -26 -108 9 -59 58 -112 104
-112 48 0 77 38 85 108 4 31 9 69 12 84 9 48 71 49 92 2 15 -31 15 -109 2
-135 -9 -15 -7 -21 5 -25 22 -9 35 6 42 49 16 100 -31 187 -101 187 -23 0 -43
-7 -56 -20z"/>
<path d="M2197 1331 c-4 -15 6 -23 54 -42 56 -23 75 -39 45 -39 -8 0 -25 -13
-39 -30 -70 -83 -25 -193 85 -208 79 -10 145 54 136 132 -4 32 -2 37 14 33 11
-3 22 2 27 12 8 14 -13 27 -148 89 -86 40 -159 72 -163 72 -3 0 -8 -9 -11 -19z
m224 -130 c20 -20 29 -39 29 -61 0 -40 -47 -90 -85 -90 -62 0 -116 60 -100
112 22 72 102 92 156 39z"/>
<path d="M662 1222 c-10 -7 -7 -21 13 -65 24 -54 37 -68 49 -48 5 8 -39 121
-46 121 -2 0 -9 -4 -16 -8z"/>
<path d="M726 1025 c-164 -110 -163 -110 -147 -129 10 -12 34 1 155 82 78 54
144 99 146 102 2 3 0 12 -6 21 -8 14 -30 3 -148 -76z"/>
<path d="M2122 1010 c-37 -23 -72 -75 -72 -107 0 -36 27 -27 40 12 16 48 55
77 99 73 20 -2 36 -8 36 -15 0 -6 -30 -43 -67 -81 -62 -65 -66 -71 -50 -85 52
-47 121 -44 170 6 59 60 51 132 -18 191 -39 32 -91 34 -138 6z m152 -76 c23
-61 -21 -127 -83 -122 -19 2 -36 8 -38 13 -4 12 93 125 107 125 4 0 11 -7 14
-16z"/>
<path d="M840 943 c-47 -42 -104 -93 -127 -114 -27 -25 -40 -44 -37 -54 4 -8
10 -15 16 -15 5 0 67 53 138 117 101 91 127 119 119 130 -6 7 -14 13 -18 13
-4 0 -45 -34 -91 -77z"/>
<path d="M923 845 c-50 -73 -67 -107 -60 -114 19 -19 31 -11 72 52 22 34 52
69 68 77 25 14 30 13 65 -5 55 -30 55 -64 -2 -150 -26 -37 -46 -71 -46 -75 0
-12 33 -22 39 -12 88 133 93 144 93 179 0 51 -55 103 -108 103 -30 0 -35 2
-25 14 10 12 8 17 -7 25 -17 9 -27 -2 -89 -94z"/>
<path d="M1961 876 c-9 -11 -4 -26 24 -70 51 -80 55 -110 19 -147 -25 -27 -27
-31 -12 -45 14 -14 17 -13 37 12 11 14 21 33 21 40 0 8 5 14 10 14 6 0 10 -4
10 -10 0 -13 27 -13 34 -1 6 9 -114 220 -125 221 -4 0 -12 -6 -18 -14z"/>
<path d="M1387 753 c-2 -5 -10 -33 -18 -63 -7 -30 -14 -56 -15 -58 -1 -2 -38
6 -82 17 -97 25 -92 25 -92 3 0 -15 16 -22 80 -38 44 -10 80 -23 80 -29 0 -9
-16 -74 -25 -101 -2 -8 -31 -4 -92 12 -106 29 -103 29 -103 6 0 -16 21 -24
113 -48 l112 -30 41 161 c23 88 40 163 37 168 -2 4 -10 7 -18 7 -8 0 -16 -3
-18 -7z"/>
<path d="M1715 554 c6 -33 4 -36 -12 -29 -41 17 -53 17 -53 2 0 -8 13 -17 32
-21 l33 -6 -30 -24 c-22 -18 -27 -28 -19 -35 7 -8 16 -6 29 9 25 27 32 25 40
-10 10 -44 29 -38 22 6 -6 38 -3 39 44 20 10 -5 19 -1 22 8 4 10 -3 17 -24 21
-35 8 -37 18 -7 39 15 11 19 19 12 26 -7 7 -16 4 -29 -10 -25 -27 -32 -25 -40
10 -10 44 -29 38 -20 -6z"/>
</g>
</svg>
